<svg version="1.1" xmlns="http://www.w3.org/2000/svg" xmlns:xlink="http://www.w3.org/1999/xlink" width="834.287109375" height="323"><defs/><g><text fill="#eeeeee" stroke="none" font-family="Arial" font-size="24px" font-style="normal" font-weight="normal" text-decoration="none" x="0" y="0">UNREGISTERED</text><text fill="#eeeeee" stroke="none" font-family="Arial" font-size="24px" font-style="normal" font-weight="normal" text-decoration="none" x="0" y="30">UNREGISTERED</text><text fill="#eeeeee" stroke="none" font-family="Arial" font-size="24px" font-style="normal" font-weight="normal" text-decoration="none" x="0" y="60">UNREGISTERED</text><text fill="#eeeeee" stroke="none" font-family="Arial" font-size="24px" font-style="normal" font-weight="normal" text-decoration="none" x="0" y="90">UNREGISTERED</text><text fill="#eeeeee" stroke="none" font-family="Arial" font-size="24px" font-style="normal" font-weight="normal" text-decoration="none" x="0" y="120">UNREGISTERED</text><text fill="#eeeeee" stroke="none" font-family="Arial" font-size="24px" font-style="normal" font-weight="normal" text-decoration="none" x="0" y="150">UNREGISTERED</text><text fill="#eeeeee" stroke="none" font-family="Arial" font-size="24px" font-style="normal" font-weight="normal" text-decoration="none" x="0" y="180">UNREGISTERED</text><text fill="#eeeeee" stroke="none" font-family="Arial" font-size="24px" font-style="normal" font-weight="normal" text-decoration="none" x="0" y="210">UNREGISTERED</text><text fill="#eeeeee" stroke="none" font-family="Arial" font-size="24px" font-style="normal" font-weight="normal" text-decoration="none" x="0" y="240">UNREGISTERED</text><text fill="#eeeeee" stroke="none" font-family="Arial" font-size="24px" font-style="normal" font-weight="normal" text-decoration="none" x="0" y="270">UNREGISTERED</text><text fill="#eeeeee" stroke="none" font-family="Arial" font-size="24px" font-style="normal" font-weight="normal" text-decoration="none" x="0" y="300">UNREGISTERED</text><text fill="#eeeeee" stroke="none" font-family="Arial" font-size="24px" font-style="normal" font-weight="normal" text-decoration="none" x="200" y="0">UNREGISTERED</text><text fill="#eeeeee" stroke="none" font-family="Arial" font-size="24px" font-style="normal" font-weight="normal" text-decoration="none" x="200" y="30">UNREGISTERED</text><text fill="#eeeeee" stroke="none" font-family="Arial" font-size="24px" font-style="normal" font-weight="normal" text-decoration="none" x="200" y="60">UNREGISTERED</text><text fill="#eeeeee" stroke="none" font-family="Arial" font-size="24px" font-style="normal" font-weight="normal" text-decoration="none" x="200" y="90">UNREGISTERED</text><text fill="#eeeeee" stroke="none" font-family="Arial" font-size="24px" font-style="normal" font-weight="normal" text-decoration="none" x="200" y="120">UNREGISTERED</text><text fill="#eeeeee" stroke="none" font-family="Arial" font-size="24px" font-style="normal" font-weight="normal" text-decoration="none" x="200" y="150">UNREGISTERED</text><text fill="#eeeeee" stroke="none" font-family="Arial" font-size="24px" font-style="normal" font-weight="normal" text-decoration="none" x="200" y="180">UNREGISTERED</text><text fill="#eeeeee" stroke="none" font-family="Arial" font-size="24px" font-style="normal" font-weight="normal" text-decoration="none" x="200" y="210">UNREGISTERED</text><text fill="#eeeeee" stroke="none" font-family="Arial" font-size="24px" font-style="normal" font-weight="normal" text-decoration="none" x="200" y="240">UNREGISTERED</text><text fill="#eeeeee" stroke="none" font-family="Arial" font-size="24px" font-style="normal" font-weight="normal" text-decoration="none" x="200" y="270">UNREGISTERED</text><text fill="#eeeeee" stroke="none" font-family="Arial" font-size="24px" font-style="normal" font-weight="normal" text-decoration="none" x="200" y="300">UNREGISTERED</text><text fill="#eeeeee" stroke="none" font-family="Arial" font-size="24px" font-style="normal" font-weight="normal" text-decoration="none" x="400" y="0">UNREGISTERED</text><text fill="#eeeeee" stroke="none" font-family="Arial" font-size="24px" font-style="normal" font-weight="normal" text-decoration="none" x="400" y="30">UNREGISTERED</text><text fill="#eeeeee" stroke="none" font-family="Arial" font-size="24px" font-style="normal" font-weight="normal" text-decoration="none" x="400" y="60">UNREGISTERED</text><text fill="#eeeeee" stroke="none" font-family="Arial" font-size="24px" font-style="normal" font-weight="normal" text-decoration="none" x="400" y="90">UNREGISTERED</text><text fill="#eeeeee" stroke="none" font-family="Arial" font-size="24px" font-style="normal" font-weight="normal" text-decoration="none" x="400" y="120">UNREGISTERED</text><text fill="#eeeeee" stroke="none" font-family="Arial" font-size="24px" font-style="normal" font-weight="normal" text-decoration="none" x="400" y="150">UNREGISTERED</text><text fill="#eeeeee" stroke="none" font-family="Arial" font-size="24px" font-style="normal" font-weight="normal" text-decoration="none" x="400" y="180">UNREGISTERED</text><text fill="#eeeeee" stroke="none" font-family="Arial" font-size="24px" font-style="normal" font-weight="normal" text-decoration="none" x="400" y="210">UNREGISTERED</text><text fill="#eeeeee" stroke="none" font-family="Arial" font-size="24px" font-style="normal" font-weight="normal" text-decoration="none" x="400" y="240">UNREGISTERED</text><text fill="#eeeeee" stroke="none" font-family="Arial" font-size="24px" font-style="normal" font-weight="normal" text-decoration="none" x="400" y="270">UNREGISTERED</text><text fill="#eeeeee" stroke="none" font-family="Arial" font-size="24px" font-style="normal" font-weight="normal" text-decoration="none" x="400" y="300">UNREGISTERED</text><text fill="#eeeeee" stroke="none" font-family="Arial" font-size="24px" font-style="normal" font-weight="normal" text-decoration="none" x="600" y="0">UNREGISTERED</text><text fill="#eeeeee" stroke="none" font-family="Arial" font-size="24px" font-style="normal" font-weight="normal" text-decoration="none" x="600" y="30">UNREGISTERED</text><text fill="#eeeeee" stroke="none" font-family="Arial" font-size="24px" font-style="normal" font-weight="normal" text-decoration="none" x="600" y="60">UNREGISTERED</text><text fill="#eeeeee" stroke="none" font-family="Arial" font-size="24px" font-style="normal" font-weight="normal" text-decoration="none" x="600" y="90">UNREGISTERED</text><text fill="#eeeeee" stroke="none" font-family="Arial" font-size="24px" font-style="normal" font-weight="normal" text-decoration="none" x="600" y="120">UNREGISTERED</text><text fill="#eeeeee" stroke="none" font-family="Arial" font-size="24px" font-style="normal" font-weight="normal" text-decoration="none" x="600" y="150">UNREGISTERED</text><text fill="#eeeeee" stroke="none" font-family="Arial" font-size="24px" font-style="normal" font-weight="normal" text-decoration="none" x="600" y="180">UNREGISTERED</text><text fill="#eeeeee" stroke="none" font-family="Arial" font-size="24px" font-style="normal" font-weight="normal" text-decoration="none" x="600" y="210">UNREGISTERED</text><text fill="#eeeeee" stroke="none" font-family="Arial" font-size="24px" font-style="normal" font-weight="normal" text-decoration="none" x="600" y="240">UNREGISTERED</text><text fill="#eeeeee" stroke="none" font-family="Arial" font-size="24px" font-style="normal" font-weight="normal" text-decoration="none" x="600" y="270">UNREGISTERED</text><text fill="#eeeeee" stroke="none" font-family="Arial" font-size="24px" font-style="normal" font-weight="normal" text-decoration="none" x="600" y="300">UNREGISTERED</text><text fill="#eeeeee" stroke="none" font-family="Arial" font-size="24px" font-style="normal" font-weight="normal" text-decoration="none" x="800" y="0">UNREGISTERED</text><text fill="#eeeeee" stroke="none" font-family="Arial" font-size="24px" font-style="normal" font-weight="normal" text-decoration="none" x="800" y="30">UNREGISTERED</text><text fill="#eeeeee" stroke="none" font-family="Arial" font-size="24px" font-style="normal" font-weight="normal" text-decoration="none" x="800" y="60">UNREGISTERED</text><text fill="#eeeeee" stroke="none" font-family="Arial" font-size="24px" font-style="normal" font-weight="normal" text-decoration="none" x="800" y="90">UNREGISTERED</text><text fill="#eeeeee" stroke="none" font-family="Arial" font-size="24px" font-style="normal" font-weight="normal" text-decoration="none" x="800" y="120">UNREGISTERED</text><text fill="#eeeeee" stroke="none" font-family="Arial" font-size="24px" font-style="normal" font-weight="normal" text-decoration="none" x="800" y="150">UNREGISTERED</text><text fill="#eeeeee" stroke="none" font-family="Arial" font-size="24px" font-style="normal" font-weight="normal" text-decoration="none" x="800" y="180">UNREGISTERED</text><text fill="#eeeeee" stroke="none" font-family="Arial" font-size="24px" font-style="normal" font-weight="normal" text-decoration="none" x="800" y="210">UNREGISTERED</text><text fill="#eeeeee" stroke="none" font-family="Arial" font-size="24px" font-style="normal" font-weight="normal" text-decoration="none" x="800" y="240">UNREGISTERED</text><text fill="#eeeeee" stroke="none" font-family="Arial" font-size="24px" font-style="normal" font-weight="normal" text-decoration="none" x="800" y="270">UNREGISTERED</text><text fill="#eeeeee" stroke="none" font-family="Arial" font-size="24px" font-style="normal" font-weight="normal" text-decoration="none" x="800" y="300">UNREGISTERED</text><g transform="translate(-14,-222) scale(1,1)"><path fill="#ffffff" stroke="none" d="M 130.71428196022728 281.68 C 130.71428196022728 276.886167936 134.60012428517274 273 139.3935546875 273 C 144.18698508982726 273 148.07282741477272 276.886167936 148.07282741477272 281.68 C 148.07282741477272 286.473832064 144.18698508982726 290.36 139.3935546875 290.36 C 134.60012428517274 290.36 130.71428196022728 286.473832064 130.71428196022728 281.68 Z"/></g><g transform="translate(-14,-222) scale(1,1)"><path fill="none" stroke="#000000" d="M 130.71428196022728 281.68 C 130.71428196022728 276.886167936 134.60012428517274 273 139.3935546875 273 C 144.18698508982726 273 148.07282741477272 276.886167936 148.07282741477272 281.68 C 148.07282741477272 286.473832064 144.18698508982726 290.36 139.3935546875 290.36 C 134.60012428517274 290.36 130.71428196022728 286.473832064 130.71428196022728 281.68 Z" stroke-miterlimit="10"/></g><g transform="translate(-14,-222) scale(1,1)"><path fill="none" stroke="#000000" d="M 139.3935546875 290.36 L 139.3935546875 307.64" stroke-miterlimit="10"/></g><g transform="translate(-14,-222) scale(1,1)"><path fill="none" stroke="#000000" d="M 130.20373650568183 296.84 L 148.58337286931817 296.84" stroke-miterlimit="10"/></g><g transform="translate(-14,-222) scale(1,1)"><path fill="none" stroke="#000000" d="M 139.3935546875 307.64 L 126.62991832386365 325" stroke-miterlimit="10"/></g><g transform="translate(-14,-222) scale(1,1)"><path fill="none" stroke="#000000" d="M 139.3935546875 307.64 L 152.15719105113635 325" stroke-miterlimit="10"/></g><g transform="translate(-14,-222) scale(1,1)"><g><path fill="none" stroke="none"/><text fill="#000000" stroke="none" font-family="Arial" font-size="13px" font-style="normal" font-weight="bold" text-decoration="none" x="119.160400390625" y="345.5">Cliente</text></g></g><g transform="translate(-14,-222) scale(1,1)"><g><path fill="none" stroke="none"/><text fill="#000000" stroke="none" font-family="Arial" font-size="13px" font-style="normal" font-weight="normal" text-decoration="none" x="28.5" y="360.5">(from Sistema de Información NETBY)</text></g></g><g transform="translate(-14,-222) scale(1,1)"><path fill="#C0C0C0" stroke="none" d="M 295 265 C 295 250.6405952 361.2618496 239 443 239 C 524.7381504 239 591 250.6405952 591 265 C 591 279.3594048 524.7381504 291 443 291 C 361.2618496 291 295 279.3594048 295 265 Z" opacity="0.2"/></g><g transform="translate(-14,-222) scale(1,1)"><path fill="#ffffff" stroke="none" d="M 288 258 C 288 243.6405952 354.2618496 232 436 232 C 517.7381504 232 584 243.6405952 584 258 C 584 272.3594048 517.7381504 284 436 284 C 354.2618496 284 288 272.3594048 288 258 Z"/></g><g transform="translate(-14,-222) scale(1,1)"><path fill="none" stroke="#000000" d="M 288 258 C 288 243.6405952 354.2618496 232 436 232 C 517.7381504 232 584 243.6405952 584 258 C 584 272.3594048 517.7381504 284 436 284 C 354.2618496 284 288 272.3594048 288 258 Z" stroke-miterlimit="10"/></g><g transform="translate(-14,-222) scale(1,1)"><g><path fill="none" stroke="none"/><text fill="#000000" stroke="none" font-family="Arial" font-size="13px" font-style="normal" font-weight="normal" text-decoration="none" x="410.7109375" y="256.5">«RF-07»</text></g></g><g transform="translate(-14,-222) scale(1,1)"><g><path fill="none" stroke="none"/><text fill="#000000" stroke="none" font-family="Arial" font-size="13px" font-style="normal" font-weight="bold" text-decoration="none" x="364.458740234375" y="271.5">Generar Captura de Red</text></g></g><g transform="translate(-14,-222) scale(1,1)"><path fill="#C0C0C0" stroke="none" d="M 335 393 C 335 378.6405952 388.2781088 367 454 367 C 519.7218912 367 573 378.6405952 573 393 C 573 407.3594048 519.7218912 419 454 419 C 388.2781088 419 335 407.3594048 335 393 Z" opacity="0.2"/></g><g transform="translate(-14,-222) scale(1,1)"><path fill="#ffffff" stroke="none" d="M 328 386 C 328 371.6405952 381.2781088 360 447 360 C 512.7218912 360 566 371.6405952 566 386 C 566 400.3594048 512.7218912 412 447 412 C 381.2781088 412 328 400.3594048 328 386 Z"/></g><g transform="translate(-14,-222) scale(1,1)"><path fill="none" stroke="#000000" d="M 328 386 C 328 371.6405952 381.2781088 360 447 360 C 512.7218912 360 566 371.6405952 566 386 C 566 400.3594048 512.7218912 412 447 412 C 381.2781088 412 328 400.3594048 328 386 Z" stroke-miterlimit="10"/></g><g transform="translate(-14,-222) scale(1,1)"><g><path fill="none" stroke="none"/><text fill="#000000" stroke="none" font-family="Arial" font-size="13px" font-style="normal" font-weight="normal" text-decoration="none" x="421.7109375" y="384.5">«RF-08»</text></g></g><g transform="translate(-14,-222) scale(1,1)"><g><path fill="none" stroke="none"/><text fill="#000000" stroke="none" font-family="Arial" font-size="13px" font-style="normal" font-weight="bold" text-decoration="none" x="377.997802734375" y="399.5">CRUD Panel de Control</text></g></g><g transform="translate(-14,-222) scale(1,1)"><path fill="#ffffff" stroke="none" d="M 730.4642819602273 281.68 C 730.4642819602273 276.886167936 734.3501242851727 273 739.1435546875 273 C 743.9369850898273 273 747.8228274147727 276.886167936 747.8228274147727 281.68 C 747.8228274147727 286.473832064 743.9369850898273 290.36 739.1435546875 290.36 C 734.3501242851727 290.36 730.4642819602273 286.473832064 730.4642819602273 281.68 Z"/></g><g transform="translate(-14,-222) scale(1,1)"><path fill="none" stroke="#000000" d="M 730.4642819602273 281.68 C 730.4642819602273 276.886167936 734.3501242851727 273 739.1435546875 273 C 743.9369850898273 273 747.8228274147727 276.886167936 747.8228274147727 281.68 C 747.8228274147727 286.473832064 743.9369850898273 290.36 739.1435546875 290.36 C 734.3501242851727 290.36 730.4642819602273 286.473832064 730.4642819602273 281.68 Z" stroke-miterlimit="10"/></g><g transform="translate(-14,-222) scale(1,1)"><path fill="none" stroke="#000000" d="M 739.1435546875 290.36 L 739.1435546875 307.64" stroke-miterlimit="10"/></g><g transform="translate(-14,-222) scale(1,1)"><path fill="none" stroke="#000000" d="M 729.9537365056818 296.84 L 748.3333728693182 296.84" stroke-miterlimit="10"/></g><g transform="translate(-14,-222) scale(1,1)"><path fill="none" stroke="#000000" d="M 739.1435546875 307.64 L 726.3799183238636 325" stroke-miterlimit="10"/></g><g transform="translate(-14,-222) scale(1,1)"><path fill="none" stroke="#000000" d="M 739.1435546875 307.64 L 751.9071910511364 325" stroke-miterlimit="10"/></g><g transform="translate(-14,-222) scale(1,1)"><g><path fill="none" stroke="none"/><text fill="#000000" stroke="none" font-family="Arial" font-size="13px" font-style="normal" font-weight="bold" text-decoration="none" x="648.82275390625" y="345.5">Base de datos Sistema NETBY</text></g></g><g transform="translate(-14,-222) scale(1,1)"><g><path fill="none" stroke="none"/><text fill="#000000" stroke="none" font-family="Arial" font-size="13px" font-style="normal" font-weight="normal" text-decoration="none" x="652.450439453125" y="360.5">(from  Modulo Administración)</text></g></g><g transform="translate(-14,-222) scale(1,1)"><path fill="none" stroke="#000000" d="M 256 295 L 305 285" stroke-miterlimit="10"/></g><g transform="translate(-14,-222) scale(1,1)"><path fill="none" stroke="#000000" d="M 295.8843051474246 291.15663116929466 L 305 285 L 294.2008347054439 282.9076260035893" stroke-miterlimit="10"/></g><g transform="translate(-14,-222) scale(1,1)"><path fill="none" stroke="#000000" d="M 256 344 L 327 360" stroke-miterlimit="10"/></g><g transform="translate(-14,-222) scale(1,1)"><path fill="none" stroke="#000000" d="M 316.16052669496486 361.87238309900266 L 327 360 L 318.01136013523524 353.659309707803" stroke-miterlimit="10"/></g><g transform="translate(-14,-222) scale(1,1)"><path fill="none" stroke="#000000" d="M 570 285 L 639 299" stroke-miterlimit="10"/></g><g transform="translate(-14,-222) scale(1,1)"><path fill="none" stroke="#000000" d="M 565 359 L 639 342" stroke-miterlimit="10"/></g><g transform="translate(-14,-222) scale(1,1)"><path fill="#ffffff" stroke="none" d="M 698.7142819602273 441.68 C 698.7142819602273 436.886167936 702.6001242851727 433 707.3935546875 433 C 712.1869850898273 433 716.0728274147727 436.886167936 716.0728274147727 441.68 C 716.0728274147727 446.473832064 712.1869850898273 450.36 707.3935546875 450.36 C 702.6001242851727 450.36 698.7142819602273 446.473832064 698.7142819602273 441.68 Z"/></g><g transform="translate(-14,-222) scale(1,1)"><path fill="none" stroke="#000000" d="M 698.7142819602273 441.68 C 698.7142819602273 436.886167936 702.6001242851727 433 707.3935546875 433 C 712.1869850898273 433 716.0728274147727 436.886167936 716.0728274147727 441.68 C 716.0728274147727 446.473832064 712.1869850898273 450.36 707.3935546875 450.36 C 702.6001242851727 450.36 698.7142819602273 446.473832064 698.7142819602273 441.68 Z" stroke-miterlimit="10"/></g><g transform="translate(-14,-222) scale(1,1)"><path fill="none" stroke="#000000" d="M 707.3935546875 450.36 L 707.3935546875 467.64" stroke-miterlimit="10"/></g><g transform="translate(-14,-222) scale(1,1)"><path fill="none" stroke="#000000" d="M 698.2037365056818 456.84 L 716.5833728693182 456.84" stroke-miterlimit="10"/></g><g transform="translate(-14,-222) scale(1,1)"><path fill="none" stroke="#000000" d="M 707.3935546875 467.64 L 694.6299183238636 485" stroke-miterlimit="10"/></g><g transform="translate(-14,-222) scale(1,1)"><path fill="none" stroke="#000000" d="M 707.3935546875 467.64 L 720.1571910511364 485" stroke-miterlimit="10"/></g><g transform="translate(-14,-222) scale(1,1)"><g><path fill="none" stroke="none"/><text fill="#000000" stroke="none" font-family="Arial" font-size="13px" font-style="normal" font-weight="bold" text-decoration="none" x="687.160400390625" y="505.5">Cliente</text></g></g><g transform="translate(-14,-222) scale(1,1)"><g><path fill="none" stroke="none"/><text fill="#000000" stroke="none" font-family="Arial" font-size="13px" font-style="normal" font-weight="normal" text-decoration="none" x="596.5" y="520.5">(from Sistema de Información NETBY)</text></g></g><g transform="translate(-14,-222) scale(1,1)"><path fill="#C0C0C0" stroke="none" d="M 343 514.5 C 343 499.312168 384.413656 487 435.5 487 C 486.586344 487 528 499.312168 528 514.5 C 528 529.687832 486.586344 542 435.5 542 C 384.413656 542 343 529.687832 343 514.5 Z" opacity="0.2"/></g><g transform="translate(-14,-222) scale(1,1)"><path fill="#ffffff" stroke="none" d="M 336 507.5 C 336 492.312168 377.413656 480 428.5 480 C 479.586344 480 521 492.312168 521 507.5 C 521 522.687832 479.586344 535 428.5 535 C 377.413656 535 336 522.687832 336 507.5 Z"/></g><g transform="translate(-14,-222) scale(1,1)"><path fill="none" stroke="#000000" d="M 336 507.5 C 336 492.312168 377.413656 480 428.5 480 C 479.586344 480 521 492.312168 521 507.5 C 521 522.687832 479.586344 535 428.5 535 C 377.413656 535 336 522.687832 336 507.5 Z" stroke-miterlimit="10"/></g><g transform="translate(-14,-222) scale(1,1)"><g><path fill="none" stroke="none"/><text fill="#000000" stroke="none" font-family="Arial" font-size="13px" font-style="normal" font-weight="normal" text-decoration="none" x="399.59912109375" y="506">«RF - 09»</text></g></g><g transform="translate(-14,-222) scale(1,1)"><g><path fill="none" stroke="none"/><text fill="#000000" stroke="none" font-family="Arial" font-size="13px" font-style="normal" font-weight="bold" text-decoration="none" x="375.036865234375" y="521">Compartir Captura</text></g></g><g transform="translate(-14,-222) scale(1,1)"><path fill="none" stroke="#000000" d="M 213 367 L 385 479" stroke-miterlimit="10"/></g><g transform="translate(-14,-222) scale(1,1)"><path fill="none" stroke="#000000" d="M 374.1866770296586 476.9820687972363 L 385 479 L 378.7807188379535 469.92693316306924" stroke-miterlimit="10"/></g><g transform="translate(-14,-222) scale(1,1)"><path fill="none" stroke="#000000" d="M 522 498 L 591 491" stroke-miterlimit="10"/></g></g></svg>