<svg version="1.1" xmlns="http://www.w3.org/2000/svg" xmlns:xlink="http://www.w3.org/1999/xlink" width="786.287109375" height="408"><defs/><g><text fill="#eeeeee" stroke="none" font-family="Arial" font-size="24px" font-style="normal" font-weight="normal" text-decoration="none" x="0" y="0">UNREGISTERED</text><text fill="#eeeeee" stroke="none" font-family="Arial" font-size="24px" font-style="normal" font-weight="normal" text-decoration="none" x="0" y="30">UNREGISTERED</text><text fill="#eeeeee" stroke="none" font-family="Arial" font-size="24px" font-style="normal" font-weight="normal" text-decoration="none" x="0" y="60">UNREGISTERED</text><text fill="#eeeeee" stroke="none" font-family="Arial" font-size="24px" font-style="normal" font-weight="normal" text-decoration="none" x="0" y="90">UNREGISTERED</text><text fill="#eeeeee" stroke="none" font-family="Arial" font-size="24px" font-style="normal" font-weight="normal" text-decoration="none" x="0" y="120">UNREGISTERED</text><text fill="#eeeeee" stroke="none" font-family="Arial" font-size="24px" font-style="normal" font-weight="normal" text-decoration="none" x="0" y="150">UNREGISTERED</text><text fill="#eeeeee" stroke="none" font-family="Arial" font-size="24px" font-style="normal" font-weight="normal" text-decoration="none" x="0" y="180">UNREGISTERED</text><text fill="#eeeeee" stroke="none" font-family="Arial" font-size="24px" font-style="normal" font-weight="normal" text-decoration="none" x="0" y="210">UNREGISTERED</text><text fill="#eeeeee" stroke="none" font-family="Arial" font-size="24px" font-style="normal" font-weight="normal" text-decoration="none" x="0" y="240">UNREGISTERED</text><text fill="#eeeeee" stroke="none" font-family="Arial" font-size="24px" font-style="normal" font-weight="normal" text-decoration="none" x="0" y="270">UNREGISTERED</text><text fill="#eeeeee" stroke="none" font-family="Arial" font-size="24px" font-style="normal" font-weight="normal" text-decoration="none" x="0" y="300">UNREGISTERED</text><text fill="#eeeeee" stroke="none" font-family="Arial" font-size="24px" font-style="normal" font-weight="normal" text-decoration="none" x="0" y="330">UNREGISTERED</text><text fill="#eeeeee" stroke="none" font-family="Arial" font-size="24px" font-style="normal" font-weight="normal" text-decoration="none" x="0" y="360">UNREGISTERED</text><text fill="#eeeeee" stroke="none" font-family="Arial" font-size="24px" font-style="normal" font-weight="normal" text-decoration="none" x="0" y="390">UNREGISTERED</text><text fill="#eeeeee" stroke="none" font-family="Arial" font-size="24px" font-style="normal" font-weight="normal" text-decoration="none" x="200" y="0">UNREGISTERED</text><text fill="#eeeeee" stroke="none" font-family="Arial" font-size="24px" font-style="normal" font-weight="normal" text-decoration="none" x="200" y="30">UNREGISTERED</text><text fill="#eeeeee" stroke="none" font-family="Arial" font-size="24px" font-style="normal" font-weight="normal" text-decoration="none" x="200" y="60">UNREGISTERED</text><text fill="#eeeeee" stroke="none" font-family="Arial" font-size="24px" font-style="normal" font-weight="normal" text-decoration="none" x="200" y="90">UNREGISTERED</text><text fill="#eeeeee" stroke="none" font-family="Arial" font-size="24px" font-style="normal" font-weight="normal" text-decoration="none" x="200" y="120">UNREGISTERED</text><text fill="#eeeeee" stroke="none" font-family="Arial" font-size="24px" font-style="normal" font-weight="normal" text-decoration="none" x="200" y="150">UNREGISTERED</text><text fill="#eeeeee" stroke="none" font-family="Arial" font-size="24px" font-style="normal" font-weight="normal" text-decoration="none" x="200" y="180">UNREGISTERED</text><text fill="#eeeeee" stroke="none" font-family="Arial" font-size="24px" font-style="normal" font-weight="normal" text-decoration="none" x="200" y="210">UNREGISTERED</text><text fill="#eeeeee" stroke="none" font-family="Arial" font-size="24px" font-style="normal" font-weight="normal" text-decoration="none" x="200" y="240">UNREGISTERED</text><text fill="#eeeeee" stroke="none" font-family="Arial" font-size="24px" font-style="normal" font-weight="normal" text-decoration="none" x="200" y="270">UNREGISTERED</text><text fill="#eeeeee" stroke="none" font-family="Arial" font-size="24px" font-style="normal" font-weight="normal" text-decoration="none" x="200" y="300">UNREGISTERED</text><text fill="#eeeeee" stroke="none" font-family="Arial" font-size="24px" font-style="normal" font-weight="normal" text-decoration="none" x="200" y="330">UNREGISTERED</text><text fill="#eeeeee" stroke="none" font-family="Arial" font-size="24px" font-style="normal" font-weight="normal" text-decoration="none" x="200" y="360">UNREGISTERED</text><text fill="#eeeeee" stroke="none" font-family="Arial" font-size="24px" font-style="normal" font-weight="normal" text-decoration="none" x="200" y="390">UNREGISTERED</text><text fill="#eeeeee" stroke="none" font-family="Arial" font-size="24px" font-style="normal" font-weight="normal" text-decoration="none" x="400" y="0">UNREGISTERED</text><text fill="#eeeeee" stroke="none" font-family="Arial" font-size="24px" font-style="normal" font-weight="normal" text-decoration="none" x="400" y="30">UNREGISTERED</text><text fill="#eeeeee" stroke="none" font-family="Arial" font-size="24px" font-style="normal" font-weight="normal" text-decoration="none" x="400" y="60">UNREGISTERED</text><text fill="#eeeeee" stroke="none" font-family="Arial" font-size="24px" font-style="normal" font-weight="normal" text-decoration="none" x="400" y="90">UNREGISTERED</text><text fill="#eeeeee" stroke="none" font-family="Arial" font-size="24px" font-style="normal" font-weight="normal" text-decoration="none" x="400" y="120">UNREGISTERED</text><text fill="#eeeeee" stroke="none" font-family="Arial" font-size="24px" font-style="normal" font-weight="normal" text-decoration="none" x="400" y="150">UNREGISTERED</text><text fill="#eeeeee" stroke="none" font-family="Arial" font-size="24px" font-style="normal" font-weight="normal" text-decoration="none" x="400" y="180">UNREGISTERED</text><text fill="#eeeeee" stroke="none" font-family="Arial" font-size="24px" font-style="normal" font-weight="normal" text-decoration="none" x="400" y="210">UNREGISTERED</text><text fill="#eeeeee" stroke="none" font-family="Arial" font-size="24px" font-style="normal" font-weight="normal" text-decoration="none" x="400" y="240">UNREGISTERED</text><text fill="#eeeeee" stroke="none" font-family="Arial" font-size="24px" font-style="normal" font-weight="normal" text-decoration="none" x="400" y="270">UNREGISTERED</text><text fill="#eeeeee" stroke="none" font-family="Arial" font-size="24px" font-style="normal" font-weight="normal" text-decoration="none" x="400" y="300">UNREGISTERED</text><text fill="#eeeeee" stroke="none" font-family="Arial" font-size="24px" font-style="normal" font-weight="normal" text-decoration="none" x="400" y="330">UNREGISTERED</text><text fill="#eeeeee" stroke="none" font-family="Arial" font-size="24px" font-style="normal" font-weight="normal" text-decoration="none" x="400" y="360">UNREGISTERED</text><text fill="#eeeeee" stroke="none" font-family="Arial" font-size="24px" font-style="normal" font-weight="normal" text-decoration="none" x="400" y="390">UNREGISTERED</text><text fill="#eeeeee" stroke="none" font-family="Arial" font-size="24px" font-style="normal" font-weight="normal" text-decoration="none" x="600" y="0">UNREGISTERED</text><text fill="#eeeeee" stroke="none" font-family="Arial" font-size="24px" font-style="normal" font-weight="normal" text-decoration="none" x="600" y="30">UNREGISTERED</text><text fill="#eeeeee" stroke="none" font-family="Arial" font-size="24px" font-style="normal" font-weight="normal" text-decoration="none" x="600" y="60">UNREGISTERED</text><text fill="#eeeeee" stroke="none" font-family="Arial" font-size="24px" font-style="normal" font-weight="normal" text-decoration="none" x="600" y="90">UNREGISTERED</text><text fill="#eeeeee" stroke="none" font-family="Arial" font-size="24px" font-style="normal" font-weight="normal" text-decoration="none" x="600" y="120">UNREGISTERED</text><text fill="#eeeeee" stroke="none" font-family="Arial" font-size="24px" font-style="normal" font-weight="normal" text-decoration="none" x="600" y="150">UNREGISTERED</text><text fill="#eeeeee" stroke="none" font-family="Arial" font-size="24px" font-style="normal" font-weight="normal" text-decoration="none" x="600" y="180">UNREGISTERED</text><text fill="#eeeeee" stroke="none" font-family="Arial" font-size="24px" font-style="normal" font-weight="normal" text-decoration="none" x="600" y="210">UNREGISTERED</text><text fill="#eeeeee" stroke="none" font-family="Arial" font-size="24px" font-style="normal" font-weight="normal" text-decoration="none" x="600" y="240">UNREGISTERED</text><text fill="#eeeeee" stroke="none" font-family="Arial" font-size="24px" font-style="normal" font-weight="normal" text-decoration="none" x="600" y="270">UNREGISTERED</text><text fill="#eeeeee" stroke="none" font-family="Arial" font-size="24px" font-style="normal" font-weight="normal" text-decoration="none" x="600" y="300">UNREGISTERED</text><text fill="#eeeeee" stroke="none" font-family="Arial" font-size="24px" font-style="normal" font-weight="normal" text-decoration="none" x="600" y="330">UNREGISTERED</text><text fill="#eeeeee" stroke="none" font-family="Arial" font-size="24px" font-style="normal" font-weight="normal" text-decoration="none" x="600" y="360">UNREGISTERED</text><text fill="#eeeeee" stroke="none" font-family="Arial" font-size="24px" font-style="normal" font-weight="normal" text-decoration="none" x="600" y="390">UNREGISTERED</text><g transform="translate(-38,-46) scale(1,1)"><path fill="#C0C0C0" stroke="none" d="M 335 169 C 335 154.6405952 401.2618496 143 483 143 C 564.7381504 143 631 154.6405952 631 169 C 631 183.3594048 564.7381504 195 483 195 C 401.2618496 195 335 183.3594048 335 169 Z" opacity="0.2"/></g><g transform="translate(-38,-46) scale(1,1)"><path fill="#ffffff" stroke="none" d="M 328 162 C 328 147.6405952 394.2618496 136 476 136 C 557.7381504 136 624 147.6405952 624 162 C 624 176.3594048 557.7381504 188 476 188 C 394.2618496 188 328 176.3594048 328 162 Z"/></g><g transform="translate(-38,-46) scale(1,1)"><path fill="none" stroke="#000000" d="M 328 162 C 328 147.6405952 394.2618496 136 476 136 C 557.7381504 136 624 147.6405952 624 162 C 624 176.3594048 557.7381504 188 476 188 C 394.2618496 188 328 176.3594048 328 162 Z" stroke-miterlimit="10"/></g><g transform="translate(-38,-46) scale(1,1)"><g><path fill="none" stroke="none"/><text fill="#000000" stroke="none" font-family="Arial" font-size="13px" font-style="normal" font-weight="normal" text-decoration="none" x="450.7109375" y="160.5">«RF-08»</text></g></g><g transform="translate(-38,-46) scale(1,1)"><g><path fill="none" stroke="none"/><text fill="#000000" stroke="none" font-family="Arial" font-size="13px" font-style="normal" font-weight="bold" text-decoration="none" x="404.458740234375" y="175.5">Generar Captura de Red</text></g></g><g transform="translate(-38,-46) scale(1,1)"><path fill="#C0C0C0" stroke="none" d="M 351 425 C 351 410.6405952 404.2781088 399 470 399 C 535.7218912 399 589 410.6405952 589 425 C 589 439.3594048 535.7218912 451 470 451 C 404.2781088 451 351 439.3594048 351 425 Z" opacity="0.2"/></g><g transform="translate(-38,-46) scale(1,1)"><path fill="#ffffff" stroke="none" d="M 344 418 C 344 403.6405952 397.2781088 392 463 392 C 528.7218912 392 582 403.6405952 582 418 C 582 432.3594048 528.7218912 444 463 444 C 397.2781088 444 344 432.3594048 344 418 Z"/></g><g transform="translate(-38,-46) scale(1,1)"><path fill="none" stroke="#000000" d="M 344 418 C 344 403.6405952 397.2781088 392 463 392 C 528.7218912 392 582 403.6405952 582 418 C 582 432.3594048 528.7218912 444 463 444 C 397.2781088 444 344 432.3594048 344 418 Z" stroke-miterlimit="10"/></g><g transform="translate(-38,-46) scale(1,1)"><g><path fill="none" stroke="none"/><text fill="#000000" stroke="none" font-family="Arial" font-size="13px" font-style="normal" font-weight="normal" text-decoration="none" x="438.193359375" y="416.5">«RF-11»</text></g></g><g transform="translate(-38,-46) scale(1,1)"><g><path fill="none" stroke="none"/><text fill="#000000" stroke="none" font-family="Arial" font-size="13px" font-style="normal" font-weight="bold" text-decoration="none" x="392.550537109375" y="431.5">Eliminar capturas de red</text></g></g><g transform="translate(-38,-46) scale(1,1)"><path fill="#ffffff" stroke="none" d="M 706.4642819602273 241.68 C 706.4642819602273 236.886167936 710.3501242851727 233 715.1435546875 233 C 719.9369850898273 233 723.8228274147727 236.886167936 723.8228274147727 241.68 C 723.8228274147727 246.47383206400002 719.9369850898273 250.36 715.1435546875 250.36 C 710.3501242851727 250.36 706.4642819602273 246.47383206400002 706.4642819602273 241.68 Z"/></g><g transform="translate(-38,-46) scale(1,1)"><path fill="none" stroke="#000000" d="M 706.4642819602273 241.68 C 706.4642819602273 236.886167936 710.3501242851727 233 715.1435546875 233 C 719.9369850898273 233 723.8228274147727 236.886167936 723.8228274147727 241.68 C 723.8228274147727 246.47383206400002 719.9369850898273 250.36 715.1435546875 250.36 C 710.3501242851727 250.36 706.4642819602273 246.47383206400002 706.4642819602273 241.68 Z" stroke-miterlimit="10"/></g><g transform="translate(-38,-46) scale(1,1)"><path fill="none" stroke="#000000" d="M 715.1435546875 250.36 L 715.1435546875 267.64" stroke-miterlimit="10"/></g><g transform="translate(-38,-46) scale(1,1)"><path fill="none" stroke="#000000" d="M 705.9537365056818 256.84 L 724.3333728693182 256.84" stroke-miterlimit="10"/></g><g transform="translate(-38,-46) scale(1,1)"><path fill="none" stroke="#000000" d="M 715.1435546875 267.64 L 702.3799183238636 285" stroke-miterlimit="10"/></g><g transform="translate(-38,-46) scale(1,1)"><path fill="none" stroke="#000000" d="M 715.1435546875 267.64 L 727.9071910511364 285" stroke-miterlimit="10"/></g><g transform="translate(-38,-46) scale(1,1)"><g><path fill="none" stroke="none"/><text fill="#000000" stroke="none" font-family="Arial" font-size="13px" font-style="normal" font-weight="bold" text-decoration="none" x="624.82275390625" y="305.5">Base de datos Sistema NETBY</text></g></g><g transform="translate(-38,-46) scale(1,1)"><g><path fill="none" stroke="none"/><text fill="#000000" stroke="none" font-family="Arial" font-size="13px" font-style="normal" font-weight="normal" text-decoration="none" x="628.450439453125" y="320.5">(from  Módulo Administración)</text></g></g><g transform="translate(-38,-46) scale(1,1)"><path fill="none" stroke="#000000" d="M 531 189 L 617 231" stroke-miterlimit="10"/></g><g transform="translate(-38,-46) scale(1,1)"><path fill="none" stroke="#000000" d="M 512 391 L 628 327" stroke-miterlimit="10"/></g><g transform="translate(-38,-46) scale(1,1)"><path fill="#C0C0C0" stroke="none" d="M 335 257 C 335 242.6405952 384.6963872 231 446 231 C 507.3036128 231 557 242.6405952 557 257 C 557 271.3594048 507.3036128 283 446 283 C 384.6963872 283 335 271.3594048 335 257 Z" opacity="0.2"/></g><g transform="translate(-38,-46) scale(1,1)"><path fill="#ffffff" stroke="none" d="M 328 250 C 328 235.6405952 377.6963872 224 439 224 C 500.3036128 224 550 235.6405952 550 250 C 550 264.3594048 500.3036128 276 439 276 C 377.6963872 276 328 264.3594048 328 250 Z"/></g><g transform="translate(-38,-46) scale(1,1)"><path fill="none" stroke="#000000" d="M 328 250 C 328 235.6405952 377.6963872 224 439 224 C 500.3036128 224 550 235.6405952 550 250 C 550 264.3594048 500.3036128 276 439 276 C 377.6963872 276 328 264.3594048 328 250 Z" stroke-miterlimit="10"/></g><g transform="translate(-38,-46) scale(1,1)"><g><path fill="none" stroke="none"/><text fill="#000000" stroke="none" font-family="Arial" font-size="13px" font-style="normal" font-weight="normal" text-decoration="none" x="413.7109375" y="248.5">«RF-09»</text></g></g><g transform="translate(-38,-46) scale(1,1)"><g><path fill="none" stroke="none"/><text fill="#000000" stroke="none" font-family="Arial" font-size="13px" font-style="normal" font-weight="bold" text-decoration="none" x="369.997802734375" y="263.5">Mostrar capturas de red</text></g></g><g transform="translate(-38,-46) scale(1,1)"><path fill="#C0C0C0" stroke="none" d="M 359 345 C 359 330.6405952 405.3385232 319 462.5 319 C 519.6614768 319 566 330.6405952 566 345 C 566 359.3594048 519.6614768 371 462.5 371 C 405.3385232 371 359 359.3594048 359 345 Z" opacity="0.2"/></g><g transform="translate(-38,-46) scale(1,1)"><path fill="#ffffff" stroke="none" d="M 352 338 C 352 323.6405952 398.3385232 312 455.5 312 C 512.6614768 312 559 323.6405952 559 338 C 559 352.3594048 512.6614768 364 455.5 364 C 398.3385232 364 352 352.3594048 352 338 Z"/></g><g transform="translate(-38,-46) scale(1,1)"><path fill="none" stroke="#000000" d="M 352 338 C 352 323.6405952 398.3385232 312 455.5 312 C 512.6614768 312 559 323.6405952 559 338 C 559 352.3594048 512.6614768 364 455.5 364 C 398.3385232 364 352 352.3594048 352 338 Z" stroke-miterlimit="10"/></g><g transform="translate(-38,-46) scale(1,1)"><g><path fill="none" stroke="none"/><text fill="#000000" stroke="none" font-family="Arial" font-size="13px" font-style="normal" font-weight="normal" text-decoration="none" x="430.2109375" y="336.5">«RF-10»</text></g></g><g transform="translate(-38,-46) scale(1,1)"><g><path fill="none" stroke="none"/><text fill="#000000" stroke="none" font-family="Arial" font-size="13px" font-style="normal" font-weight="bold" text-decoration="none" x="391.54736328125" y="351.5">Editar capturas de red</text></g></g><g transform="translate(-38,-46) scale(1,1)"><path fill="none" stroke="#000000" d="M 560 314 L 615 302" stroke-miterlimit="10"/></g><g transform="translate(-38,-46) scale(1,1)"><path fill="none" stroke="#000000" d="M 615 268 L 551 262" stroke-miterlimit="10"/></g><g transform="translate(-38,-46) scale(1,1)"><path fill="none" stroke="#000000" d="M 561.5112262871653 258.7574513203339 L 551 262 L 560.7253875459603 267.1397312265216" stroke-miterlimit="10"/></g><g transform="translate(-38,-46) scale(1,1)"><path fill="#ffffff" stroke="none" d="M 154.71428196022728 329.68 C 154.71428196022728 324.886167936 158.60012428517274 321 163.3935546875 321 C 168.18698508982726 321 172.07282741477272 324.886167936 172.07282741477272 329.68 C 172.07282741477272 334.473832064 168.18698508982726 338.36 163.3935546875 338.36 C 158.60012428517274 338.36 154.71428196022728 334.473832064 154.71428196022728 329.68 Z"/></g><g transform="translate(-38,-46) scale(1,1)"><path fill="none" stroke="#000000" d="M 154.71428196022728 329.68 C 154.71428196022728 324.886167936 158.60012428517274 321 163.3935546875 321 C 168.18698508982726 321 172.07282741477272 324.886167936 172.07282741477272 329.68 C 172.07282741477272 334.473832064 168.18698508982726 338.36 163.3935546875 338.36 C 158.60012428517274 338.36 154.71428196022728 334.473832064 154.71428196022728 329.68 Z" stroke-miterlimit="10"/></g><g transform="translate(-38,-46) scale(1,1)"><path fill="none" stroke="#000000" d="M 163.3935546875 338.36 L 163.3935546875 355.64" stroke-miterlimit="10"/></g><g transform="translate(-38,-46) scale(1,1)"><path fill="none" stroke="#000000" d="M 154.20373650568183 344.84 L 172.58337286931817 344.84" stroke-miterlimit="10"/></g><g transform="translate(-38,-46) scale(1,1)"><path fill="none" stroke="#000000" d="M 163.3935546875 355.64 L 150.62991832386365 373" stroke-miterlimit="10"/></g><g transform="translate(-38,-46) scale(1,1)"><path fill="none" stroke="#000000" d="M 163.3935546875 355.64 L 176.15719105113635 373" stroke-miterlimit="10"/></g><g transform="translate(-38,-46) scale(1,1)"><g><path fill="none" stroke="none"/><text fill="#000000" stroke="none" font-family="Arial" font-size="13px" font-style="normal" font-weight="bold" text-decoration="none" x="140.995849609375" y="393.5">Usuario</text></g></g><g transform="translate(-38,-46) scale(1,1)"><g><path fill="none" stroke="none"/><text fill="#000000" stroke="none" font-family="Arial" font-size="13px" font-style="normal" font-weight="normal" text-decoration="none" x="64.41455078125" y="408.5">(from Módulo principal de NETBY)</text></g></g><g transform="translate(-38,-46) scale(1,1)"><path fill="none" stroke="#000000" d="M 280 355 L 351 348" stroke-miterlimit="10"/></g><g transform="translate(-38,-46) scale(1,1)"><path fill="none" stroke="#000000" d="M 341.2993804389768 353.18632626550766 L 351 348 L 340.47333965490327 344.807912598476" stroke-miterlimit="10"/></g><g transform="translate(-38,-46) scale(1,1)"><path fill="none" stroke="#000000" d="M 280 387 L 343 398" stroke-miterlimit="10"/></g><g transform="translate(-38,-46) scale(1,1)"><path fill="none" stroke="#000000" d="M 332.2647404522525 400.3987918714421 L 343 398 L 333.7128231770383 392.105227174942" stroke-miterlimit="10"/></g><g transform="translate(-38,-46) scale(1,1)"><path fill="#C0C0C0" stroke="none" d="M 367 89 C 367 74.6405952 405.5035072 63 453 63 C 500.4964928 63 539 74.6405952 539 89 C 539 103.3594048 500.4964928 115 453 115 C 405.5035072 115 367 103.3594048 367 89 Z" opacity="0.2"/></g><g transform="translate(-38,-46) scale(1,1)"><path fill="#ffffff" stroke="none" d="M 360 82 C 360 67.6405952 398.5035072 56 446 56 C 493.4964928 56 532 67.6405952 532 82 C 532 96.3594048 493.4964928 108 446 108 C 398.5035072 108 360 96.3594048 360 82 Z"/></g><g transform="translate(-38,-46) scale(1,1)"><path fill="none" stroke="#000000" d="M 360 82 C 360 67.6405952 398.5035072 56 446 56 C 493.4964928 56 532 67.6405952 532 82 C 532 96.3594048 493.4964928 108 446 108 C 398.5035072 108 360 96.3594048 360 82 Z" stroke-miterlimit="10"/></g><g transform="translate(-38,-46) scale(1,1)"><g><path fill="none" stroke="none"/><text fill="#000000" stroke="none" font-family="Arial" font-size="13px" font-style="normal" font-weight="normal" text-decoration="none" x="420.7109375" y="80.5">«RF-12»</text></g></g><g transform="translate(-38,-46) scale(1,1)"><g><path fill="none" stroke="none"/><text fill="#000000" stroke="none" font-family="Arial" font-size="13px" font-style="normal" font-weight="bold" text-decoration="none" x="393.98095703125" y="95.5">Compartir captura</text></g></g><g transform="translate(-38,-46) scale(1,1)"><path fill="#ffffff" stroke="none" d="M 154.71428196022728 73.68 C 154.71428196022728 68.886167936 158.60012428517274 65 163.3935546875 65 C 168.18698508982726 65 172.07282741477272 68.886167936 172.07282741477272 73.68 C 172.07282741477272 78.473832064 168.18698508982726 82.36 163.3935546875 82.36 C 158.60012428517274 82.36 154.71428196022728 78.473832064 154.71428196022728 73.68 Z"/></g><g transform="translate(-38,-46) scale(1,1)"><path fill="none" stroke="#000000" d="M 154.71428196022728 73.68 C 154.71428196022728 68.886167936 158.60012428517274 65 163.3935546875 65 C 168.18698508982726 65 172.07282741477272 68.886167936 172.07282741477272 73.68 C 172.07282741477272 78.473832064 168.18698508982726 82.36 163.3935546875 82.36 C 158.60012428517274 82.36 154.71428196022728 78.473832064 154.71428196022728 73.68 Z" stroke-miterlimit="10"/></g><g transform="translate(-38,-46) scale(1,1)"><path fill="none" stroke="#000000" d="M 163.3935546875 82.36 L 163.3935546875 99.64" stroke-miterlimit="10"/></g><g transform="translate(-38,-46) scale(1,1)"><path fill="none" stroke="#000000" d="M 154.20373650568183 88.84 L 172.58337286931817 88.84" stroke-miterlimit="10"/></g><g transform="translate(-38,-46) scale(1,1)"><path fill="none" stroke="#000000" d="M 163.3935546875 99.64 L 150.62991832386365 117" stroke-miterlimit="10"/></g><g transform="translate(-38,-46) scale(1,1)"><path fill="none" stroke="#000000" d="M 163.3935546875 99.64 L 176.15719105113635 117" stroke-miterlimit="10"/></g><g transform="translate(-38,-46) scale(1,1)"><g><path fill="none" stroke="none"/><text fill="#000000" stroke="none" font-family="Arial" font-size="13px" font-style="normal" font-weight="bold" text-decoration="none" x="143.160400390625" y="137.5">Cliente</text></g></g><g transform="translate(-38,-46) scale(1,1)"><g><path fill="none" stroke="none"/><text fill="#000000" stroke="none" font-family="Arial" font-size="13px" font-style="normal" font-weight="normal" text-decoration="none" x="64.41455078125" y="152.5">(from Módulo principal de NETBY)</text></g></g><g transform="translate(-38,-46) scale(1,1)"><path fill="none" stroke="#000000" d="M 280 99 L 359 91" stroke-miterlimit="10"/></g><g transform="translate(-38,-46) scale(1,1)"><path fill="none" stroke="#000000" d="M 349.3131469460816 96.21199365999148 L 359 91 L 348.4649244567354 87.83579657769793" stroke-miterlimit="10"/></g><g transform="translate(-38,-46) scale(1,1)"><path fill="none" stroke="#000000" d="M 280 130 L 327 138" stroke-miterlimit="10"/></g><g transform="translate(-38,-46) scale(1,1)"><path fill="none" stroke="#000000" d="M 316.2750656486637 140.44454150292592 L 327 138 L 317.6877743187787 132.14487806600044" stroke-miterlimit="10"/></g></g></svg>