<svg version="1.1" xmlns="http://www.w3.org/2000/svg" xmlns:xlink="http://www.w3.org/1999/xlink" width="865.5107421875" height="272"><defs/><g><text fill="#eeeeee" stroke="none" font-family="Arial" font-size="24px" font-style="normal" font-weight="normal" text-decoration="none" x="0" y="0">UNREGISTERED</text><text fill="#eeeeee" stroke="none" font-family="Arial" font-size="24px" font-style="normal" font-weight="normal" text-decoration="none" x="0" y="30">UNREGISTERED</text><text fill="#eeeeee" stroke="none" font-family="Arial" font-size="24px" font-style="normal" font-weight="normal" text-decoration="none" x="0" y="60">UNREGISTERED</text><text fill="#eeeeee" stroke="none" font-family="Arial" font-size="24px" font-style="normal" font-weight="normal" text-decoration="none" x="0" y="90">UNREGISTERED</text><text fill="#eeeeee" stroke="none" font-family="Arial" font-size="24px" font-style="normal" font-weight="normal" text-decoration="none" x="0" y="120">UNREGISTERED</text><text fill="#eeeeee" stroke="none" font-family="Arial" font-size="24px" font-style="normal" font-weight="normal" text-decoration="none" x="0" y="150">UNREGISTERED</text><text fill="#eeeeee" stroke="none" font-family="Arial" font-size="24px" font-style="normal" font-weight="normal" text-decoration="none" x="0" y="180">UNREGISTERED</text><text fill="#eeeeee" stroke="none" font-family="Arial" font-size="24px" font-style="normal" font-weight="normal" text-decoration="none" x="0" y="210">UNREGISTERED</text><text fill="#eeeeee" stroke="none" font-family="Arial" font-size="24px" font-style="normal" font-weight="normal" text-decoration="none" x="0" y="240">UNREGISTERED</text><text fill="#eeeeee" stroke="none" font-family="Arial" font-size="24px" font-style="normal" font-weight="normal" text-decoration="none" x="0" y="270">UNREGISTERED</text><text fill="#eeeeee" stroke="none" font-family="Arial" font-size="24px" font-style="normal" font-weight="normal" text-decoration="none" x="200" y="0">UNREGISTERED</text><text fill="#eeeeee" stroke="none" font-family="Arial" font-size="24px" font-style="normal" font-weight="normal" text-decoration="none" x="200" y="30">UNREGISTERED</text><text fill="#eeeeee" stroke="none" font-family="Arial" font-size="24px" font-style="normal" font-weight="normal" text-decoration="none" x="200" y="60">UNREGISTERED</text><text fill="#eeeeee" stroke="none" font-family="Arial" font-size="24px" font-style="normal" font-weight="normal" text-decoration="none" x="200" y="90">UNREGISTERED</text><text fill="#eeeeee" stroke="none" font-family="Arial" font-size="24px" font-style="normal" font-weight="normal" text-decoration="none" x="200" y="120">UNREGISTERED</text><text fill="#eeeeee" stroke="none" font-family="Arial" font-size="24px" font-style="normal" font-weight="normal" text-decoration="none" x="200" y="150">UNREGISTERED</text><text fill="#eeeeee" stroke="none" font-family="Arial" font-size="24px" font-style="normal" font-weight="normal" text-decoration="none" x="200" y="180">UNREGISTERED</text><text fill="#eeeeee" stroke="none" font-family="Arial" font-size="24px" font-style="normal" font-weight="normal" text-decoration="none" x="200" y="210">UNREGISTERED</text><text fill="#eeeeee" stroke="none" font-family="Arial" font-size="24px" font-style="normal" font-weight="normal" text-decoration="none" x="200" y="240">UNREGISTERED</text><text fill="#eeeeee" stroke="none" font-family="Arial" font-size="24px" font-style="normal" font-weight="normal" text-decoration="none" x="200" y="270">UNREGISTERED</text><text fill="#eeeeee" stroke="none" font-family="Arial" font-size="24px" font-style="normal" font-weight="normal" text-decoration="none" x="400" y="0">UNREGISTERED</text><text fill="#eeeeee" stroke="none" font-family="Arial" font-size="24px" font-style="normal" font-weight="normal" text-decoration="none" x="400" y="30">UNREGISTERED</text><text fill="#eeeeee" stroke="none" font-family="Arial" font-size="24px" font-style="normal" font-weight="normal" text-decoration="none" x="400" y="60">UNREGISTERED</text><text fill="#eeeeee" stroke="none" font-family="Arial" font-size="24px" font-style="normal" font-weight="normal" text-decoration="none" x="400" y="90">UNREGISTERED</text><text fill="#eeeeee" stroke="none" font-family="Arial" font-size="24px" font-style="normal" font-weight="normal" text-decoration="none" x="400" y="120">UNREGISTERED</text><text fill="#eeeeee" stroke="none" font-family="Arial" font-size="24px" font-style="normal" font-weight="normal" text-decoration="none" x="400" y="150">UNREGISTERED</text><text fill="#eeeeee" stroke="none" font-family="Arial" font-size="24px" font-style="normal" font-weight="normal" text-decoration="none" x="400" y="180">UNREGISTERED</text><text fill="#eeeeee" stroke="none" font-family="Arial" font-size="24px" font-style="normal" font-weight="normal" text-decoration="none" x="400" y="210">UNREGISTERED</text><text fill="#eeeeee" stroke="none" font-family="Arial" font-size="24px" font-style="normal" font-weight="normal" text-decoration="none" x="400" y="240">UNREGISTERED</text><text fill="#eeeeee" stroke="none" font-family="Arial" font-size="24px" font-style="normal" font-weight="normal" text-decoration="none" x="400" y="270">UNREGISTERED</text><text fill="#eeeeee" stroke="none" font-family="Arial" font-size="24px" font-style="normal" font-weight="normal" text-decoration="none" x="600" y="0">UNREGISTERED</text><text fill="#eeeeee" stroke="none" font-family="Arial" font-size="24px" font-style="normal" font-weight="normal" text-decoration="none" x="600" y="30">UNREGISTERED</text><text fill="#eeeeee" stroke="none" font-family="Arial" font-size="24px" font-style="normal" font-weight="normal" text-decoration="none" x="600" y="60">UNREGISTERED</text><text fill="#eeeeee" stroke="none" font-family="Arial" font-size="24px" font-style="normal" font-weight="normal" text-decoration="none" x="600" y="90">UNREGISTERED</text><text fill="#eeeeee" stroke="none" font-family="Arial" font-size="24px" font-style="normal" font-weight="normal" text-decoration="none" x="600" y="120">UNREGISTERED</text><text fill="#eeeeee" stroke="none" font-family="Arial" font-size="24px" font-style="normal" font-weight="normal" text-decoration="none" x="600" y="150">UNREGISTERED</text><text fill="#eeeeee" stroke="none" font-family="Arial" font-size="24px" font-style="normal" font-weight="normal" text-decoration="none" x="600" y="180">UNREGISTERED</text><text fill="#eeeeee" stroke="none" font-family="Arial" font-size="24px" font-style="normal" font-weight="normal" text-decoration="none" x="600" y="210">UNREGISTERED</text><text fill="#eeeeee" stroke="none" font-family="Arial" font-size="24px" font-style="normal" font-weight="normal" text-decoration="none" x="600" y="240">UNREGISTERED</text><text fill="#eeeeee" stroke="none" font-family="Arial" font-size="24px" font-style="normal" font-weight="normal" text-decoration="none" x="600" y="270">UNREGISTERED</text><text fill="#eeeeee" stroke="none" font-family="Arial" font-size="24px" font-style="normal" font-weight="normal" text-decoration="none" x="800" y="0">UNREGISTERED</text><text fill="#eeeeee" stroke="none" font-family="Arial" font-size="24px" font-style="normal" font-weight="normal" text-decoration="none" x="800" y="30">UNREGISTERED</text><text fill="#eeeeee" stroke="none" font-family="Arial" font-size="24px" font-style="normal" font-weight="normal" text-decoration="none" x="800" y="60">UNREGISTERED</text><text fill="#eeeeee" stroke="none" font-family="Arial" font-size="24px" font-style="normal" font-weight="normal" text-decoration="none" x="800" y="90">UNREGISTERED</text><text fill="#eeeeee" stroke="none" font-family="Arial" font-size="24px" font-style="normal" font-weight="normal" text-decoration="none" x="800" y="120">UNREGISTERED</text><text fill="#eeeeee" stroke="none" font-family="Arial" font-size="24px" font-style="normal" font-weight="normal" text-decoration="none" x="800" y="150">UNREGISTERED</text><text fill="#eeeeee" stroke="none" font-family="Arial" font-size="24px" font-style="normal" font-weight="normal" text-decoration="none" x="800" y="180">UNREGISTERED</text><text fill="#eeeeee" stroke="none" font-family="Arial" font-size="24px" font-style="normal" font-weight="normal" text-decoration="none" x="800" y="210">UNREGISTERED</text><text fill="#eeeeee" stroke="none" font-family="Arial" font-size="24px" font-style="normal" font-weight="normal" text-decoration="none" x="800" y="240">UNREGISTERED</text><text fill="#eeeeee" stroke="none" font-family="Arial" font-size="24px" font-style="normal" font-weight="normal" text-decoration="none" x="800" y="270">UNREGISTERED</text><g transform="translate(2,-126) scale(1,1)"><path fill="#ffffff" stroke="none" d="M 125.91789524147728 225.68 C 125.91789524147728 220.886167936 129.80373756642274 217 134.59716796875 217 C 139.39059837107726 217 143.27644069602272 220.886167936 143.27644069602272 225.68 C 143.27644069602272 230.47383206400002 139.39059837107726 234.36 134.59716796875 234.36 C 129.80373756642274 234.36 125.91789524147728 230.47383206400002 125.91789524147728 225.68 Z"/></g><g transform="translate(2,-126) scale(1,1)"><path fill="none" stroke="#000000" d="M 125.91789524147728 225.68 C 125.91789524147728 220.886167936 129.80373756642274 217 134.59716796875 217 C 139.39059837107726 217 143.27644069602272 220.886167936 143.27644069602272 225.68 C 143.27644069602272 230.47383206400002 139.39059837107726 234.36 134.59716796875 234.36 C 129.80373756642274 234.36 125.91789524147728 230.47383206400002 125.91789524147728 225.68 Z" stroke-miterlimit="10"/></g><g transform="translate(2,-126) scale(1,1)"><path fill="none" stroke="#000000" d="M 134.59716796875 234.36 L 134.59716796875 251.64" stroke-miterlimit="10"/></g><g transform="translate(2,-126) scale(1,1)"><path fill="none" stroke="#000000" d="M 125.40734978693183 240.84 L 143.78698615056817 240.84" stroke-miterlimit="10"/></g><g transform="translate(2,-126) scale(1,1)"><path fill="none" stroke="#000000" d="M 134.59716796875 251.64 L 121.83353160511365 269" stroke-miterlimit="10"/></g><g transform="translate(2,-126) scale(1,1)"><path fill="none" stroke="#000000" d="M 134.59716796875 251.64 L 147.36080433238635 269" stroke-miterlimit="10"/></g><g transform="translate(2,-126) scale(1,1)"><g><path fill="none" stroke="none"/><text fill="#000000" stroke="none" font-family="Arial" font-size="13px" font-style="normal" font-weight="bold" text-decoration="none" x="94.4990234375" y="289.5">Administrador</text></g></g><g transform="translate(2,-126) scale(1,1)"><g><path fill="none" stroke="none"/><text fill="#000000" stroke="none" font-family="Arial" font-size="13px" font-style="normal" font-weight="normal" text-decoration="none" x="23.70361328125" y="304.5">(from Sistema de Información NETBY)</text></g></g><g transform="translate(2,-126) scale(1,1)"><path fill="#C0C0C0" stroke="none" d="M 367 169 C 367 154.6405952 405.5035072 143 453 143 C 500.4964928 143 539 154.6405952 539 169 C 539 183.3594048 500.4964928 195 453 195 C 405.5035072 195 367 183.3594048 367 169 Z" opacity="0.2"/></g><g transform="translate(2,-126) scale(1,1)"><path fill="#ffffff" stroke="none" d="M 360 162 C 360 147.6405952 398.5035072 136 446 136 C 493.4964928 136 532 147.6405952 532 162 C 532 176.3594048 493.4964928 188 446 188 C 398.5035072 188 360 176.3594048 360 162 Z"/></g><g transform="translate(2,-126) scale(1,1)"><path fill="none" stroke="#000000" d="M 360 162 C 360 147.6405952 398.5035072 136 446 136 C 493.4964928 136 532 147.6405952 532 162 C 532 176.3594048 493.4964928 188 446 188 C 398.5035072 188 360 176.3594048 360 162 Z" stroke-miterlimit="10"/></g><g transform="translate(2,-126) scale(1,1)"><g><path fill="none" stroke="none"/><text fill="#000000" stroke="none" font-family="Arial" font-size="13px" font-style="normal" font-weight="normal" text-decoration="none" x="420.7109375" y="160.5">«RF-04»</text></g></g><g transform="translate(2,-126) scale(1,1)"><g><path fill="none" stroke="none"/><text fill="#000000" stroke="none" font-family="Arial" font-size="13px" font-style="normal" font-weight="bold" text-decoration="none" x="393.615966796875" y="175.5">Gestionar Usuario</text></g></g><g transform="translate(2,-126) scale(1,1)"><path fill="#C0C0C0" stroke="none" d="M 343 273 C 343 258.6405952 390.4578112 247 449 247 C 507.5421888 247 555 258.6405952 555 273 C 555 287.3594048 507.5421888 299 449 299 C 390.4578112 299 343 287.3594048 343 273 Z" opacity="0.2"/></g><g transform="translate(2,-126) scale(1,1)"><path fill="#ffffff" stroke="none" d="M 336 266 C 336 251.6405952 383.4578112 240 442 240 C 500.5421888 240 548 251.6405952 548 266 C 548 280.3594048 500.5421888 292 442 292 C 383.4578112 292 336 280.3594048 336 266 Z"/></g><g transform="translate(2,-126) scale(1,1)"><path fill="none" stroke="#000000" d="M 336 266 C 336 251.6405952 383.4578112 240 442 240 C 500.5421888 240 548 251.6405952 548 266 C 548 280.3594048 500.5421888 292 442 292 C 383.4578112 292 336 280.3594048 336 266 Z" stroke-miterlimit="10"/></g><g transform="translate(2,-126) scale(1,1)"><g><path fill="none" stroke="none"/><text fill="#000000" stroke="none" font-family="Arial" font-size="13px" font-style="normal" font-weight="normal" text-decoration="none" x="416.7109375" y="264.5">«RF-06»</text></g></g><g transform="translate(2,-126) scale(1,1)"><g><path fill="none" stroke="none"/><text fill="#000000" stroke="none" font-family="Arial" font-size="13px" font-style="normal" font-weight="bold" text-decoration="none" x="385.6455078125" y="279.5">Gestionar permisos</text></g></g><g transform="translate(2,-126) scale(1,1)"><path fill="none" stroke="#000000" d="M 262 222 L 363 189" stroke-miterlimit="10"/></g><g transform="translate(2,-126) scale(1,1)"><path fill="none" stroke="#000000" d="M 354.64725435211204 196.1576281086467 L 363 189 L 352.0325095380165 188.15492428368754" stroke-miterlimit="10"/></g><g transform="translate(2,-126) scale(1,1)"><path fill="none" stroke="#000000" d="M 262 264 L 335 265" stroke-miterlimit="10"/></g><g transform="translate(2,-126) scale(1,1)"><path fill="none" stroke="#000000" d="M 324.7806193166043 269.0699211844751 L 335 265 L 324.895937750807 260.65167548768125" stroke-miterlimit="10"/></g><g transform="translate(2,-126) scale(1,1)"><path fill="#ffffff" stroke="none" d="M 735.9866438210228 219.89 C 735.9866438210228 213.875618528 740.8079667056772 209 746.75537109375 209 C 752.7027754818228 209 757.5240983664772 213.875618528 757.5240983664772 219.89 C 757.5240983664772 225.90438147199998 752.7027754818228 230.78 746.75537109375 230.78 C 740.8079667056772 230.78 735.9866438210228 225.90438147199998 735.9866438210228 219.89 Z"/></g><g transform="translate(2,-126) scale(1,1)"><path fill="none" stroke="#000000" d="M 735.9866438210228 219.89 C 735.9866438210228 213.875618528 740.8079667056772 209 746.75537109375 209 C 752.7027754818228 209 757.5240983664772 213.875618528 757.5240983664772 219.89 C 757.5240983664772 225.90438147199998 752.7027754818228 230.78 746.75537109375 230.78 C 740.8079667056772 230.78 735.9866438210228 225.90438147199998 735.9866438210228 219.89 Z" stroke-miterlimit="10"/></g><g transform="translate(2,-126) scale(1,1)"><path fill="none" stroke="#000000" d="M 746.75537109375 230.78 L 746.75537109375 252.22" stroke-miterlimit="10"/></g><g transform="translate(2,-126) scale(1,1)"><path fill="none" stroke="#000000" d="M 735.3531892755682 238.82 L 758.1575529119318 238.82" stroke-miterlimit="10"/></g><g transform="translate(2,-126) scale(1,1)"><path fill="none" stroke="#000000" d="M 746.75537109375 252.22 L 730.9190074573864 274" stroke-miterlimit="10"/></g><g transform="translate(2,-126) scale(1,1)"><path fill="none" stroke="#000000" d="M 746.75537109375 252.22 L 762.5917347301136 274" stroke-miterlimit="10"/></g><g transform="translate(2,-126) scale(1,1)"><g><path fill="none" stroke="none"/><text fill="#000000" stroke="none" font-family="Arial" font-size="13px" font-style="normal" font-weight="bold" text-decoration="none" x="656.4345703125" y="294.5">Base de datos Sistema NETBY</text></g></g><g transform="translate(2,-126) scale(1,1)"><path fill="none" stroke="#000000" d="M 533 189 L 639 221" stroke-miterlimit="10"/></g><g transform="translate(2,-126) scale(1,1)"><path fill="none" stroke="#000000" d="M 549 262 L 639 258" stroke-miterlimit="10"/></g><g transform="translate(2,-126) scale(1,1)"><path fill="#C0C0C0" stroke="none" d="M 375 369 C 375 354.6405952 417.7568016 343 470.5 343 C 523.2431984 343 566 354.6405952 566 369 C 566 383.3594048 523.2431984 395 470.5 395 C 417.7568016 395 375 383.3594048 375 369 Z" opacity="0.2"/></g><g transform="translate(2,-126) scale(1,1)"><path fill="#ffffff" stroke="none" d="M 368 362 C 368 347.6405952 410.7568016 336 463.5 336 C 516.2431984 336 559 347.6405952 559 362 C 559 376.3594048 516.2431984 388 463.5 388 C 410.7568016 388 368 376.3594048 368 362 Z"/></g><g transform="translate(2,-126) scale(1,1)"><path fill="none" stroke="#000000" d="M 368 362 C 368 347.6405952 410.7568016 336 463.5 336 C 516.2431984 336 559 347.6405952 559 362 C 559 376.3594048 516.2431984 388 463.5 388 C 410.7568016 388 368 376.3594048 368 362 Z" stroke-miterlimit="10"/></g><g transform="translate(2,-126) scale(1,1)"><g><path fill="none" stroke="none"/><text fill="#000000" stroke="none" font-family="Arial" font-size="13px" font-style="normal" font-weight="normal" text-decoration="none" x="434.59912109375" y="360.5">«RF - 06»</text></g></g><g transform="translate(2,-126) scale(1,1)"><g><path fill="none" stroke="none"/><text fill="#000000" stroke="none" font-family="Arial" font-size="13px" font-style="normal" font-weight="bold" text-decoration="none" x="410.38916015625" y="375.5">Gestionar Captura</text></g></g><g transform="translate(2,-126) scale(1,1)"><path fill="none" stroke="#000000" d="M 262 302 L 373 335" stroke-miterlimit="10"/></g><g transform="translate(2,-126) scale(1,1)"><path fill="none" stroke="#000000" d="M 362.05911926849234 336.1389156329264 L 373 335 L 364.45829407535604 328.0689640098393" stroke-miterlimit="10"/></g><g transform="translate(2,-126) scale(1,1)"><path fill="none" stroke="#000000" d="M 534 335 L 639 295" stroke-miterlimit="10"/></g></g></svg>