<svg version="1.1" xmlns="http://www.w3.org/2000/svg" xmlns:xlink="http://www.w3.org/1999/xlink" width="865.5107421875" height="272"><defs/><g><text fill="#eeeeee" stroke="none" font-family="Arial" font-size="24px" font-style="normal" font-weight="normal" text-decoration="none" x="0" y="0">UNREGISTERED</text><text fill="#eeeeee" stroke="none" font-family="Arial" font-size="24px" font-style="normal" font-weight="normal" text-decoration="none" x="0" y="30">UNREGISTERED</text><text fill="#eeeeee" stroke="none" font-family="Arial" font-size="24px" font-style="normal" font-weight="normal" text-decoration="none" x="0" y="60">UNREGISTERED</text><text fill="#eeeeee" stroke="none" font-family="Arial" font-size="24px" font-style="normal" font-weight="normal" text-decoration="none" x="0" y="90">UNREGISTERED</text><text fill="#eeeeee" stroke="none" font-family="Arial" font-size="24px" font-style="normal" font-weight="normal" text-decoration="none" x="0" y="120">UNREGISTERED</text><text fill="#eeeeee" stroke="none" font-family="Arial" font-size="24px" font-style="normal" font-weight="normal" text-decoration="none" x="0" y="150">UNREGISTERED</text><text fill="#eeeeee" stroke="none" font-family="Arial" font-size="24px" font-style="normal" font-weight="normal" text-decoration="none" x="0" y="180">UNREGISTERED</text><text fill="#eeeeee" stroke="none" font-family="Arial" font-size="24px" font-style="normal" font-weight="normal" text-decoration="none" x="0" y="210">UNREGISTERED</text><text fill="#eeeeee" stroke="none" font-family="Arial" font-size="24px" font-style="normal" font-weight="normal" text-decoration="none" x="0" y="240">UNREGISTERED</text><text fill="#eeeeee" stroke="none" font-family="Arial" font-size="24px" font-style="normal" font-weight="normal" text-decoration="none" x="0" y="270">UNREGISTERED</text><text fill="#eeeeee" stroke="none" font-family="Arial" font-size="24px" font-style="normal" font-weight="normal" text-decoration="none" x="200" y="0">UNREGISTERED</text><text fill="#eeeeee" stroke="none" font-family="Arial" font-size="24px" font-style="normal" font-weight="normal" text-decoration="none" x="200" y="30">UNREGISTERED</text><text fill="#eeeeee" stroke="none" font-family="Arial" font-size="24px" font-style="normal" font-weight="normal" text-decoration="none" x="200" y="60">UNREGISTERED</text><text fill="#eeeeee" stroke="none" font-family="Arial" font-size="24px" font-style="normal" font-weight="normal" text-decoration="none" x="200" y="90">UNREGISTERED</text><text fill="#eeeeee" stroke="none" font-family="Arial" font-size="24px" font-style="normal" font-weight="normal" text-decoration="none" x="200" y="120">UNREGISTERED</text><text fill="#eeeeee" stroke="none" font-family="Arial" font-size="24px" font-style="normal" font-weight="normal" text-decoration="none" x="200" y="150">UNREGISTERED</text><text fill="#eeeeee" stroke="none" font-family="Arial" font-size="24px" font-style="normal" font-weight="normal" text-decoration="none" x="200" y="180">UNREGISTERED</text><text fill="#eeeeee" stroke="none" font-family="Arial" font-size="24px" font-style="normal" font-weight="normal" text-decoration="none" x="200" y="210">UNREGISTERED</text><text fill="#eeeeee" stroke="none" font-family="Arial" font-size="24px" font-style="normal" font-weight="normal" text-decoration="none" x="200" y="240">UNREGISTERED</text><text fill="#eeeeee" stroke="none" font-family="Arial" font-size="24px" font-style="normal" font-weight="normal" text-decoration="none" x="200" y="270">UNREGISTERED</text><text fill="#eeeeee" stroke="none" font-family="Arial" font-size="24px" font-style="normal" font-weight="normal" text-decoration="none" x="400" y="0">UNREGISTERED</text><text fill="#eeeeee" stroke="none" font-family="Arial" font-size="24px" font-style="normal" font-weight="normal" text-decoration="none" x="400" y="30">UNREGISTERED</text><text fill="#eeeeee" stroke="none" font-family="Arial" font-size="24px" font-style="normal" font-weight="normal" text-decoration="none" x="400" y="60">UNREGISTERED</text><text fill="#eeeeee" stroke="none" font-family="Arial" font-size="24px" font-style="normal" font-weight="normal" text-decoration="none" x="400" y="90">UNREGISTERED</text><text fill="#eeeeee" stroke="none" font-family="Arial" font-size="24px" font-style="normal" font-weight="normal" text-decoration="none" x="400" y="120">UNREGISTERED</text><text fill="#eeeeee" stroke="none" font-family="Arial" font-size="24px" font-style="normal" font-weight="normal" text-decoration="none" x="400" y="150">UNREGISTERED</text><text fill="#eeeeee" stroke="none" font-family="Arial" font-size="24px" font-style="normal" font-weight="normal" text-decoration="none" x="400" y="180">UNREGISTERED</text><text fill="#eeeeee" stroke="none" font-family="Arial" font-size="24px" font-style="normal" font-weight="normal" text-decoration="none" x="400" y="210">UNREGISTERED</text><text fill="#eeeeee" stroke="none" font-family="Arial" font-size="24px" font-style="normal" font-weight="normal" text-decoration="none" x="400" y="240">UNREGISTERED</text><text fill="#eeeeee" stroke="none" font-family="Arial" font-size="24px" font-style="normal" font-weight="normal" text-decoration="none" x="400" y="270">UNREGISTERED</text><text fill="#eeeeee" stroke="none" font-family="Arial" font-size="24px" font-style="normal" font-weight="normal" text-decoration="none" x="600" y="0">UNREGISTERED</text><text fill="#eeeeee" stroke="none" font-family="Arial" font-size="24px" font-style="normal" font-weight="normal" text-decoration="none" x="600" y="30">UNREGISTERED</text><text fill="#eeeeee" stroke="none" font-family="Arial" font-size="24px" font-style="normal" font-weight="normal" text-decoration="none" x="600" y="60">UNREGISTERED</text><text fill="#eeeeee" stroke="none" font-family="Arial" font-size="24px" font-style="normal" font-weight="normal" text-decoration="none" x="600" y="90">UNREGISTERED</text><text fill="#eeeeee" stroke="none" font-family="Arial" font-size="24px" font-style="normal" font-weight="normal" text-decoration="none" x="600" y="120">UNREGISTERED</text><text fill="#eeeeee" stroke="none" font-family="Arial" font-size="24px" font-style="normal" font-weight="normal" text-decoration="none" x="600" y="150">UNREGISTERED</text><text fill="#eeeeee" stroke="none" font-family="Arial" font-size="24px" font-style="normal" font-weight="normal" text-decoration="none" x="600" y="180">UNREGISTERED</text><text fill="#eeeeee" stroke="none" font-family="Arial" font-size="24px" font-style="normal" font-weight="normal" text-decoration="none" x="600" y="210">UNREGISTERED</text><text fill="#eeeeee" stroke="none" font-family="Arial" font-size="24px" font-style="normal" font-weight="normal" text-decoration="none" x="600" y="240">UNREGISTERED</text><text fill="#eeeeee" stroke="none" font-family="Arial" font-size="24px" font-style="normal" font-weight="normal" text-decoration="none" x="600" y="270">UNREGISTERED</text><text fill="#eeeeee" stroke="none" font-family="Arial" font-size="24px" font-style="normal" font-weight="normal" text-decoration="none" x="800" y="0">UNREGISTERED</text><text fill="#eeeeee" stroke="none" font-family="Arial" font-size="24px" font-style="normal" font-weight="normal" text-decoration="none" x="800" y="30">UNREGISTERED</text><text fill="#eeeeee" stroke="none" font-family="Arial" font-size="24px" font-style="normal" font-weight="normal" text-decoration="none" x="800" y="60">UNREGISTERED</text><text fill="#eeeeee" stroke="none" font-family="Arial" font-size="24px" font-style="normal" font-weight="normal" text-decoration="none" x="800" y="90">UNREGISTERED</text><text fill="#eeeeee" stroke="none" font-family="Arial" font-size="24px" font-style="normal" font-weight="normal" text-decoration="none" x="800" y="120">UNREGISTERED</text><text fill="#eeeeee" stroke="none" font-family="Arial" font-size="24px" font-style="normal" font-weight="normal" text-decoration="none" x="800" y="150">UNREGISTERED</text><text fill="#eeeeee" stroke="none" font-family="Arial" font-size="24px" font-style="normal" font-weight="normal" text-decoration="none" x="800" y="180">UNREGISTERED</text><text fill="#eeeeee" stroke="none" font-family="Arial" font-size="24px" font-style="normal" font-weight="normal" text-decoration="none" x="800" y="210">UNREGISTERED</text><text fill="#eeeeee" stroke="none" font-family="Arial" font-size="24px" font-style="normal" font-weight="normal" text-decoration="none" x="800" y="240">UNREGISTERED</text><text fill="#eeeeee" stroke="none" font-family="Arial" font-size="24px" font-style="normal" font-weight="normal" text-decoration="none" x="800" y="270">UNREGISTERED</text><g transform="translate(2,-110) scale(1,1)"><path fill="#ffffff" stroke="none" d="M 125.91789524147728 225.68 C 125.91789524147728 220.886167936 129.80373756642274 217 134.59716796875 217 C 139.39059837107726 217 143.27644069602272 220.886167936 143.27644069602272 225.68 C 143.27644069602272 230.47383206400002 139.39059837107726 234.36 134.59716796875 234.36 C 129.80373756642274 234.36 125.91789524147728 230.47383206400002 125.91789524147728 225.68 Z"/></g><g transform="translate(2,-110) scale(1,1)"><path fill="none" stroke="#000000" d="M 125.91789524147728 225.68 C 125.91789524147728 220.886167936 129.80373756642274 217 134.59716796875 217 C 139.39059837107726 217 143.27644069602272 220.886167936 143.27644069602272 225.68 C 143.27644069602272 230.47383206400002 139.39059837107726 234.36 134.59716796875 234.36 C 129.80373756642274 234.36 125.91789524147728 230.47383206400002 125.91789524147728 225.68 Z" stroke-miterlimit="10"/></g><g transform="translate(2,-110) scale(1,1)"><path fill="none" stroke="#000000" d="M 134.59716796875 234.36 L 134.59716796875 251.64" stroke-miterlimit="10"/></g><g transform="translate(2,-110) scale(1,1)"><path fill="none" stroke="#000000" d="M 125.40734978693183 240.84 L 143.78698615056817 240.84" stroke-miterlimit="10"/></g><g transform="translate(2,-110) scale(1,1)"><path fill="none" stroke="#000000" d="M 134.59716796875 251.64 L 121.83353160511365 269" stroke-miterlimit="10"/></g><g transform="translate(2,-110) scale(1,1)"><path fill="none" stroke="#000000" d="M 134.59716796875 251.64 L 147.36080433238635 269" stroke-miterlimit="10"/></g><g transform="translate(2,-110) scale(1,1)"><g><path fill="none" stroke="none"/><text fill="#000000" stroke="none" font-family="Arial" font-size="13px" font-style="normal" font-weight="bold" text-decoration="none" x="94.4990234375" y="289.5">Administrador</text></g></g><g transform="translate(2,-110) scale(1,1)"><g><path fill="none" stroke="none"/><text fill="#000000" stroke="none" font-family="Arial" font-size="13px" font-style="normal" font-weight="normal" text-decoration="none" x="35.6181640625" y="304.5">(from Módulo principal de NETBY)</text></g></g><g transform="translate(2,-110) scale(1,1)"><path fill="#C0C0C0" stroke="none" d="M 367 153 C 367 138.6405952 405.5035072 127 453 127 C 500.4964928 127 539 138.6405952 539 153 C 539 167.3594048 500.4964928 179 453 179 C 405.5035072 179 367 167.3594048 367 153 Z" opacity="0.2"/></g><g transform="translate(2,-110) scale(1,1)"><path fill="#ffffff" stroke="none" d="M 360 146 C 360 131.6405952 398.5035072 120 446 120 C 493.4964928 120 532 131.6405952 532 146 C 532 160.3594048 493.4964928 172 446 172 C 398.5035072 172 360 160.3594048 360 146 Z"/></g><g transform="translate(2,-110) scale(1,1)"><path fill="none" stroke="#000000" d="M 360 146 C 360 131.6405952 398.5035072 120 446 120 C 493.4964928 120 532 131.6405952 532 146 C 532 160.3594048 493.4964928 172 446 172 C 398.5035072 172 360 160.3594048 360 146 Z" stroke-miterlimit="10"/></g><g transform="translate(2,-110) scale(1,1)"><g><path fill="none" stroke="none"/><text fill="#000000" stroke="none" font-family="Arial" font-size="13px" font-style="normal" font-weight="normal" text-decoration="none" x="420.7109375" y="144.5">«RF-05»</text></g></g><g transform="translate(2,-110) scale(1,1)"><g><path fill="none" stroke="none"/><text fill="#000000" stroke="none" font-family="Arial" font-size="13px" font-style="normal" font-weight="bold" text-decoration="none" x="406.98095703125" y="159.5">Editar Cliente</text></g></g><g transform="translate(2,-110) scale(1,1)"><path fill="none" stroke="#000000" d="M 262 215 L 374 173" stroke-miterlimit="10"/></g><g transform="translate(2,-110) scale(1,1)"><path fill="none" stroke="#000000" d="M 365.96245137057895 180.50984767020555 L 374 173 L 363.0063306467394 172.62685907330007" stroke-miterlimit="10"/></g><g transform="translate(2,-110) scale(1,1)"><path fill="#ffffff" stroke="none" d="M 735.9866438210228 219.89 C 735.9866438210228 213.875618528 740.8079667056772 209 746.75537109375 209 C 752.7027754818228 209 757.5240983664772 213.875618528 757.5240983664772 219.89 C 757.5240983664772 225.90438147199998 752.7027754818228 230.78 746.75537109375 230.78 C 740.8079667056772 230.78 735.9866438210228 225.90438147199998 735.9866438210228 219.89 Z"/></g><g transform="translate(2,-110) scale(1,1)"><path fill="none" stroke="#000000" d="M 735.9866438210228 219.89 C 735.9866438210228 213.875618528 740.8079667056772 209 746.75537109375 209 C 752.7027754818228 209 757.5240983664772 213.875618528 757.5240983664772 219.89 C 757.5240983664772 225.90438147199998 752.7027754818228 230.78 746.75537109375 230.78 C 740.8079667056772 230.78 735.9866438210228 225.90438147199998 735.9866438210228 219.89 Z" stroke-miterlimit="10"/></g><g transform="translate(2,-110) scale(1,1)"><path fill="none" stroke="#000000" d="M 746.75537109375 230.78 L 746.75537109375 252.22" stroke-miterlimit="10"/></g><g transform="translate(2,-110) scale(1,1)"><path fill="none" stroke="#000000" d="M 735.3531892755682 238.82 L 758.1575529119318 238.82" stroke-miterlimit="10"/></g><g transform="translate(2,-110) scale(1,1)"><path fill="none" stroke="#000000" d="M 746.75537109375 252.22 L 730.9190074573864 274" stroke-miterlimit="10"/></g><g transform="translate(2,-110) scale(1,1)"><path fill="none" stroke="#000000" d="M 746.75537109375 252.22 L 762.5917347301136 274" stroke-miterlimit="10"/></g><g transform="translate(2,-110) scale(1,1)"><g><path fill="none" stroke="none"/><text fill="#000000" stroke="none" font-family="Arial" font-size="13px" font-style="normal" font-weight="bold" text-decoration="none" x="656.4345703125" y="294.5">Base de datos Sistema NETBY</text></g></g><g transform="translate(2,-110) scale(1,1)"><path fill="none" stroke="#000000" d="M 521 173 L 639 215" stroke-miterlimit="10"/></g><g transform="translate(2,-110) scale(1,1)"><path fill="#C0C0C0" stroke="none" d="M 375 257 C 375 242.6405952 409.0263552 231 451 231 C 492.9736448 231 527 242.6405952 527 257 C 527 271.3594048 492.9736448 283 451 283 C 409.0263552 283 375 271.3594048 375 257 Z" opacity="0.2"/></g><g transform="translate(2,-110) scale(1,1)"><path fill="#ffffff" stroke="none" d="M 368 250 C 368 235.6405952 402.0263552 224 444 224 C 485.9736448 224 520 235.6405952 520 250 C 520 264.3594048 485.9736448 276 444 276 C 402.0263552 276 368 264.3594048 368 250 Z"/></g><g transform="translate(2,-110) scale(1,1)"><path fill="none" stroke="#000000" d="M 368 250 C 368 235.6405952 402.0263552 224 444 224 C 485.9736448 224 520 235.6405952 520 250 C 520 264.3594048 485.9736448 276 444 276 C 402.0263552 276 368 264.3594048 368 250 Z" stroke-miterlimit="10"/></g><g transform="translate(2,-110) scale(1,1)"><g><path fill="none" stroke="none"/><text fill="#000000" stroke="none" font-family="Arial" font-size="13px" font-style="normal" font-weight="normal" text-decoration="none" x="418.7109375" y="248.5">«RF-06»</text></g></g><g transform="translate(2,-110) scale(1,1)"><g><path fill="none" stroke="none"/><text fill="#000000" stroke="none" font-family="Arial" font-size="13px" font-style="normal" font-weight="bold" text-decoration="none" x="398.484130859375" y="263.5">Eliminar Cliente</text></g></g><g transform="translate(2,-110) scale(1,1)"><path fill="#C0C0C0" stroke="none" d="M 383 353 C 383 338.6405952 415.6832096 327 456 327 C 496.3167904 327 529 338.6405952 529 353 C 529 367.3594048 496.3167904 379 456 379 C 415.6832096 379 383 367.3594048 383 353 Z" opacity="0.2"/></g><g transform="translate(2,-110) scale(1,1)"><path fill="#ffffff" stroke="none" d="M 376 346 C 376 331.6405952 408.6832096 320 449 320 C 489.3167904 320 522 331.6405952 522 346 C 522 360.3594048 489.3167904 372 449 372 C 408.6832096 372 376 360.3594048 376 346 Z"/></g><g transform="translate(2,-110) scale(1,1)"><path fill="none" stroke="#000000" d="M 376 346 C 376 331.6405952 408.6832096 320 449 320 C 489.3167904 320 522 331.6405952 522 346 C 522 360.3594048 489.3167904 372 449 372 C 408.6832096 372 376 360.3594048 376 346 Z" stroke-miterlimit="10"/></g><g transform="translate(2,-110) scale(1,1)"><g><path fill="none" stroke="none"/><text fill="#000000" stroke="none" font-family="Arial" font-size="13px" font-style="normal" font-weight="normal" text-decoration="none" x="423.7109375" y="344.5">«RF-07»</text></g></g><g transform="translate(2,-110) scale(1,1)"><g><path fill="none" stroke="none"/><text fill="#000000" stroke="none" font-family="Arial" font-size="13px" font-style="normal" font-weight="bold" text-decoration="none" x="404.931396484375" y="359.5">Mostrar Cliente</text></g></g><g transform="translate(2,-110) scale(1,1)"><path fill="none" stroke="#000000" d="M 262 258 L 367 253" stroke-miterlimit="10"/></g><g transform="translate(2,-110) scale(1,1)"><path fill="none" stroke="#000000" d="M 357.0490542316979 257.68814230973317 L 367 253 L 356.6486015496341 249.27863598639388" stroke-miterlimit="10"/></g><g transform="translate(2,-110) scale(1,1)"><path fill="none" stroke="#000000" d="M 639 287 L 523 323" stroke-miterlimit="10"/></g><g transform="translate(2,-110) scale(1,1)"><path fill="none" stroke="#000000" d="M 531.4583085327153 315.9674317091552 L 523 323 L 533.9537040484648 324.0081505932372" stroke-miterlimit="10"/></g><g transform="translate(2,-110) scale(1,1)"><path fill="none" stroke="#000000" d="M 521 251 L 639 253" stroke-miterlimit="10"/></g></g></svg>